{
  "accessors": [
    {
      "bufferView": 1,
      "componentType": 5126,
      "count": 65532,
      "max": [
        188.1754150390625,
        510.69384765625,
        21.777585983276367
      ],
      "min": [
        -20.322521209716797,
        422.568359375,
        -104.46636962890625
      ],
      "type": "VEC3"
    },
    {
      "bufferView": 1,
      "byteOffset": 786384,
      "componentType": 5126,
      "count": 65532,
      "max": [
        0.99994927644729614,
        0.7163316011428833,
        0.99999409914016724
      ],
      "min": [
        -0.99978721141815186,
        -0.99999767541885376,
        -0.99417674541473389
      ],
      "type": "VEC3"
    },
    {
      "bufferView": 0,
      "componentType": 5125,
      "count": 359613,
      "max": [
        65531
      ],
      "min": [
        0
      ],
      "type": "SCALAR"
    },
    {
      "bufferView": 1,
      "byteOffset": 1572768,
      "componentType": 5126,
      "count": 65532,
      "max": [
        155.58821105957031,
        534.7158203125,
        -24.720479965209961
      ],
      "min": [
        -19.528888702392578,
        416.17001342773438,
        -159.14241027832031
      ],
      "type": "VEC3"
    },
    {
      "bufferView": 1,
      "byteOffset": 2359152,
      "componentType": 5126,
      "count": 65532,
      "max": [
        0.99998116493225098,
        0.97829657793045044,
        0.99757444858551025
      ],
      "min": [
        -0.99930548667907715,
        -0.99999868869781494,
        -0.99995952844619751
      ],
      "type": "VEC3"
    },
    {
      "bufferView": 0,
      "byteOffset": 1438452,
      "componentType": 5125,
      "count": 360531,
      "max": [
        65531
      ],
      "min": [
        0
      ],
      "type": "SCALAR"
    },
    {
      "bufferView": 1,
      "byteOffset": 3145536,
      "componentType": 5126,
      "count": 65532,
      "max": [
        153.78526306152344,
        524.5902099609375,
        -98.790611267089844
      ],
      "min": [
        -0.41878759860992432,
        430.51052856445312,
        -159.29161071777344
      ],
      "type": "VEC3"
    },
    {
      "bufferView": 1,
      "byteOffset": 3931920,
      "componentType": 5126,
      "count": 65532,
      "max": [
        0.99996799230575562,
        0.97141367197036743,
        0.99319404363632202
      ],
      "min": [
        -0.96555554866790771,
        -0.99979609251022339,
        -0.99999904632568359
      ],
      "type": "VEC3"
    },
    {
      "bufferView": 0,
      "byteOffset": 2880576,
      "componentType": 5125,
      "count": 369057,
      "max": [
        65531
      ],
      "min": [
        0
      ],
      "type": "SCALAR"
    },
    {
      "bufferView": 1,
      "byteOffset": 4718304,
      "componentType": 5126,
      "count": 65532,
      "max": [
        198.61636352539062,
        588.92596435546875,
        13.962921142578125
      ],
      "min": [
        -17.86180305480957,
        420.48281860351562,
        -161.39044189453125
      ],
      "type": "VEC3"
    },
    {
      "bufferView": 1,
      "byteOffset": 5504688,
      "componentType": 5126,
      "count": 65532,
      "max": [
        0.99998116493225098,
        0.98522895574569702,
        0.99973970651626587
      ],
      "min": [
        -0.99630057811737061,
        -0.99999254941940308,
        -0.99999243021011353
      ],
      "type": "VEC3"
    },
    {
      "bufferView": 0,
      "byteOffset": 4356804,
      "componentType": 5125,
      "count": 349350,
      "max": [
        65531
      ],
      "min": [
        0
      ],
      "type": "SCALAR"
    },
    {
      "bufferView": 1,
      "byteOffset": 6291072,
      "componentType": 5126,
      "count": 65534,
      "max": [
        198.52947998046875,
        589.1373291015625,
        -15.029664993286133
      ],
      "min": [
        -19.800546646118164,
        420.52987670898438,
        -152.58078002929688
      ],
      "type": "VEC3"
    },
    {
      "bufferView": 1,
      "byteOffset": 7077480,
      "componentType": 5126,
      "count": 65534,
      "max": [
        0.99996227025985718,
        0.98996144533157349,
        0.9986993670463562
      ],
      "min": [
        -0.9979667067527771,
        -0.99999600648880005,
        -0.99998563528060913
      ],
      "type": "VEC3"
    },
    {
      "bufferView": 0,
      "byteOffset": 5754204,
      "componentType": 5125,
      "count": 299688,
      "max": [
        65533
      ],
      "min": [
        0
      ],
      "type": "SCALAR"
    },
    {
      "bufferView": 1,
      "byteOffset": 7863888,
      "componentType": 5126,
      "count": 25504,
      "max": [
        198.24118041992188,
        584.2940673828125,
        21.649913787841797
      ],
      "min": [
        -17.092563629150391,
        415.51730346679688,
        -158.41738891601562
      ],
      "type": "VEC3"
    },
    {
      "bufferView": 1,
      "byteOffset": 8169936,
      "componentType": 5126,
      "count": 25504,
      "max": [
        0.99998116493225098,
        0.98190069198608398,
        0.99999934434890747
      ],
      "min": [
        -0.99696236848831177,
        -0.9999542236328125,
        -0.99992352724075317
      ],
      "type": "VEC3"
    },
    {
      "bufferView": 0,
      "byteOffset": 6952956,
      "componentType": 5125,
      "count": 77709,
      "max": [
        25503
      ],
      "min": [
        0
      ],
      "type": "SCALAR"
    }
  ],
  "asset": {
    "extras": {
      "author": "Diana (https://sketchfab.com/Diana123456)",
      "license": "CC-BY-4.0 (http://creativecommons.org/licenses/by/4.0/)",
      "source": "https://sketchfab.com/3d-models/face-b55743f9347e4517b2286f6fb07e4617",
      "title": "Face"
    },
    "generator": "Sketchfab-9.31.1",
    "version": "2.0"
  },
  "bufferViews": [
    {
      "buffer": 0,
      "byteLength": 7263792,
      "byteOffset": 0,
      "name": "floatBufferViews",
      "target": 34963
    },
    {
      "buffer": 0,
      "byteLength": 8475984,
      "byteOffset": 7263792,
      "byteStride": 12,
      "name": "floatBufferViews",
      "target": 34962
    }
  ],
  "buffers": [
    {
      "byteLength": 15739776,
      "uri": "scene.bin"
    }
  ],
  "materials": [
    {
      "doubleSided": true,
      "name": "material_0",
      "pbrMetallicRoughness": {
        "baseColorFactor": [
          0.93098142449999999,
          0.79790060650000005,
          0.7464642843,
          1
        ],
        "metallicFactor": 0.25695503050000001,
        "roughnessFactor": 0.1045160061
      }
    }
  ],
  "meshes": [
    {
      "primitives": [
        {
          "attributes": {
            "NORMAL": 1,
            "POSITION": 0
          },
          "indices": 2,
          "material": 0,
          "mode": 4
        }
      ]
    },
    {
      "primitives": [
        {
          "attributes": {
            "NORMAL": 4,
            "POSITION": 3
          },
          "indices": 5,
          "material": 0,
          "mode": 4
        }
      ]
    },
    {
      "primitives": [
        {
          "attributes": {
            "NORMAL": 7,
            "POSITION": 6
          },
          "indices": 8,
          "material": 0,
          "mode": 4
        }
      ]
    },
    {
      "primitives": [
        {
          "attributes": {
            "NORMAL": 10,
            "POSITION": 9
          },
          "indices": 11,
          "material": 0,
          "mode": 4
        }
      ]
    },
    {
      "primitives": [
        {
          "attributes": {
            "NORMAL": 13,
            "POSITION": 12
          },
          "indices": 14,
          "material": 0,
          "mode": 4
        }
      ]
    },
    {
      "primitives": [
        {
          "attributes": {
            "NORMAL": 16,
            "POSITION": 15
          },
          "indices": 17,
          "material": 0,
          "mode": 4
        }
      ]
    }
  ],
  "nodes": [
    {
      "children": [
        1
      ],
      "name": "RootNode (gltf orientation matrix)",
      "rotation": [
        -0.70710678118654746,
        -0,
        -0,
        0.70710678118654757
      ]
    },
    {
      "children": [
        2
      ],
      "matrix": [
        -0.18349474668502808,
        -0.23391696810722351,
        -0.95478403568267822,
        0,
        -0.12952437996864319,
        0.96856069564819336,
        -0.21239960193634033,
        0,
        0.97445017099380493,
        0.084693588316440582,
        -0.20802375674247742,
        0,
        235.21556091308594,
        9.2305965423583984,
        115.85222625732422,
        1
      ],
      "name": "RootNode (model correction matrix)"
    },
    {
      "children": [
        3,
        4,
        5,
        6,
        7,
        8
      ],
      "name": "EU Face.obj.cleaner.materialmerger.gles"
    },
    {
      "mesh": 0,
      "name": ""
    },
    {
      "mesh": 1,
      "name": ""
    },
    {
      "mesh": 2,
      "name": ""
    },
    {
      "mesh": 3,
      "name": ""
    },
    {
      "mesh": 4,
      "name": ""
    },
    {
      "mesh": 5,
      "name": ""
    }
  ],
  "scene": 0,
  "scenes": [
    {
      "name": "OSG_Scene",
      "nodes": [
        0
      ]
    }
  ]
}

